<svg xmlns="http://www.w3.org/2000/svg" viewBox="0 0 281 610" role="img" aria-label="Circuit artwork" preserveAspectRatio="xMidYMid meet">
  <defs>
    <style>
      .trace {
        fill: none;
        stroke: #66d5f4;
        stroke-width: 4;
        stroke-linecap: round;
        stroke-linejoin: round;
      }
      .node {
        fill: #66d5f4;
      }
    </style>
  </defs>

  <g>
    <path class="trace" d="M78 16V206L54 230V594"/>
    <path class="trace" d="M88 16V216L64 240V594"/>
    <path class="trace" d="M98 16V226L74 250V594"/>
    <path class="trace" d="M108 16V236L84 260V594"/>
    <path class="trace" d="M118 16V246L94 270V594"/>
    <path class="trace" d="M128 16V256L104 280V594"/>

    <path class="trace" d="M84 262L66 280V364"/>
    <path class="trace" d="M94 272L74 292V414"/>
    <path class="trace" d="M104 286L84 306V456"/>
    <path class="trace" d="M114 252L138 228V192"/>
    <path class="trace" d="M90 238L58 270H32"/>

    <circle class="node" cx="66" cy="364" r="5"/>
    <circle class="node" cx="74" cy="414" r="5"/>
    <circle class="node" cx="84" cy="456" r="5"/>
    <circle class="node" cx="138" cy="192" r="5"/>
    <circle class="node" cx="32" cy="270" r="5"/>
  </g>

  <g>
    <path class="trace" d="M166 196V276L146 296V600"/>
    <path class="trace" d="M176 188V286L156 306V600"/>
    <path class="trace" d="M186 196V296L166 316V600"/>
    <path class="trace" d="M196 208V308L176 328V600"/>

    <path class="trace" d="M176 286L152 310V382"/>
    <path class="trace" d="M186 298L160 324V430"/>
    <path class="trace" d="M196 312L224 340V438"/>
    <path class="trace" d="M166 276L196 246V208"/>

    <circle class="node" cx="152" cy="382" r="5"/>
    <circle class="node" cx="160" cy="430" r="5"/>
    <circle class="node" cx="224" cy="438" r="5"/>
    <circle class="node" cx="196" cy="208" r="5"/>
  </g>

  <g>
    <path class="trace" d="M224 170V238L244 258V594"/>
    <path class="trace" d="M234 162V248L254 268V594"/>
    <path class="trace" d="M244 154V258L264 278V594"/>
    <path class="trace" d="M254 146V268L274 288V594"/>
    <path class="trace" d="M264 138V278L281 295V594"/>

    <path class="trace" d="M244 258L224 278V332"/>
    <path class="trace" d="M254 270L232 292V382"/>
    <path class="trace" d="M264 284L240 308V434"/>
    <path class="trace" d="M274 296L250 320V468"/>
    <path class="trace" d="M244 390L272 362H281"/>

    <circle class="node" cx="224" cy="332" r="5"/>
    <circle class="node" cx="232" cy="382" r="5"/>
    <circle class="node" cx="240" cy="434" r="5"/>
    <circle class="node" cx="250" cy="468" r="5"/>
    <circle class="node" cx="281" cy="362" r="5"/>
  </g>
</svg>
