<?xml version="1.0" standalone="yes"?>
<svg xmlns="http://www.w3.org/2000/svg" viewBox="0 0 281 610" role="img" aria-label="Circuit artwork" preserveAspectRatio="xMidYMid meet">
<path style="stroke:#66d5f4; fill:none; stroke-width:4; stroke-linecap:round; stroke-linejoin:round;" d="M82 20L82 153L82 190L81.5 205L67 220L35 252M90 20L90 152L90 191L89.6667 208L78 220L46.3333 253L45 268L44.8333 310L24.5 332L24 358M97 20L96 153L96 195L96.8333 211L86.3333 223.167L63 247L53.1667 258L52.8333 315L33 338L33 371L32.5 384L24 393M105 20L105 156L105 197C105 202.628 106.475 210.628 104.833 216C103.55 220.201 98.0379 223.962 95 227L71 251C67.9622 254.038 62.4503 257.799 61.1667 262C56.0581 278.719 66.7964 300.859 60 317M114 20L114 158L114 200C114 205.628 115.475 213.628 113.833 219C112.649 222.876 107.795 226.205 105 229C97.8109 236.189 90.9176 244.289 83 250.667C78.7111 254.122 69.8756 260.269 69 266C66.3705 283.211 73.9093 304.388 68.8333 321C66.0556 330.091 51.9444 333.909 49.1667 343C47.9846 346.869 47.4237 369 52 369C57.7043 369 53.5528 348.069 57 344C62.2734 337.776 74.4277 330.873 76.8333 323C80.4055 311.309 77 293.284 77 281C77 277.109 75.7364 270.527 77.5 267C81.8725 258.255 94.0782 249.922 101 243C105.763 238.237 111.502 229.881 118 228M122 20L122.333 45L136 60L167 91M178 142L178 200L178.5 223L193 238M164 159L164 217L164.5 240L181 257M234 207C219.121 221.487 232.38 242.847 226.833 261C223.89 270.632 209.799 275.621 205.5 285C203.81 288.688 205 294.988 205 299C205 311.284 208.406 329.309 204.833 341C203.354 345.841 196.519 350.481 193 354C183.47 363.53 174.493 373.507 165 383M185 591L185 456L185 415C185 409.661 183.609 402.097 185.167 397C186.45 392.799 191.962 389.038 195 386L219 362C222.223 358.777 228.279 354.72 229 350C231.677 332.478 223.999 310.912 229.167 294C232.092 284.425 248.459 280.088 250 270C252.191 255.659 242.317 227.501 257 219M174 237L190.5 254L191 278L191 336M233 242C233 248.337 235.335 260.331 232.5 266C228.471 274.057 215.824 278.303 213.167 287C209.511 298.966 213 317.426 213 330C213 334.135 214.371 341.258 212.5 345C206.178 357.644 188.032 369.968 178 380C174.721 383.279 168.549 387.478 167.167 392C165.525 397.372 167 405.372 167 411L167 453L167 591M180 357C184.957 352.043 195.775 344.737 197.833 338C199.475 332.628 198 324.628 198 319L198 277C198 265.936 199.064 253.744 212 250M258 253L257.5 277L237.167 299L237 342L236.5 356L223 369.333L202 391L192.333 402L192 419L192 456L192 547L193 591M101 254L84.5 270L84 289L84 328L83.8333 346L69 362M90 275L91 334L91.5 358L107 373M220 294C220.336 306.778 219.456 319.947 220 333C220.186 337.46 222.67 343.661 220.5 348C214.355 360.29 196.749 372.251 187 382C183.721 385.279 177.549 389.478 176.167 394C174.525 399.372 176 407.372 176 413L176 454L176 591M199 591L199 460L199 422L199.5 405L213 390L246 358M106 359L121.5 376L122 400L122 456M47 369L48 369M55 370L54.5 397L47 404M88 372L105.5 390L106 413L106 471M252 410L222 440C217.908 444.092 211.098 448.803 208.5 454C204.075 462.85 208 483.034 208 493L208 591"/>
</svg>
