<svg xmlns="http://www.w3.org/2000/svg" viewBox="0 0 281 610" role="img" aria-label="Circuit artwork" preserveAspectRatio="xMidYMid meet">
  <defs>
    <clipPath id="clip-left" clipPathUnits="userSpaceOnUse">
      <rect x="0" y="0" width="90" height="610" />
    </clipPath>
    <clipPath id="clip-center" clipPathUnits="userSpaceOnUse">
      <rect x="90" y="0" width="101" height="610" />
    </clipPath>
    <clipPath id="clip-right" clipPathUnits="userSpaceOnUse">
      <rect x="191" y="0" width="90" height="610" />
    </clipPath>
<g id="circuit-base" transform="translate(0.000000,610.000000) scale(0.100000,-0.100000)"
fill="currentColor" stroke="none">
<path d="M810 4987 l0 -932 -218 -218 c-176 -176 -222 -217 -244 -217 -21 0
-29 -6 -34 -24 -7 -29 -1 -42 26 -56 15 -8 24 -6 40 10 12 12 19 28 16 38 -4
13 54 77 214 237 l220 219 0 938 c0 619 -3 938 -10 938 -7 0 -10 -318 -10
-933z"/>
<path d="M890 4972 l0 -948 -225 -225 -225 -225 0 -289 0 -290 -105 -105 -105
-105 0 -106 c0 -83 -3 -109 -15 -119 -19 -16 -19 -54 0 -70 20 -17 62 -5 70
20 7 21 -10 60 -25 60 -6 0 -10 43 -10 103 l0 102 110 110 110 110 0 289 0
289 220 221 220 221 0 952 c0 629 -3 953 -10 953 -7 0 -10 -323 -10 -948z"/>
<path d="M951 4948 l0 -973 -215 -220 -215 -220 -1 -295 0 -295 -100 -100
-100 -100 0 -240 0 -241 -31 -27 c-17 -15 -41 -27 -53 -27 -27 -1 -56 -23 -56
-42 0 -9 12 -23 26 -33 23 -15 27 -15 50 0 13 8 24 25 24 38 0 12 14 36 30 54
l30 32 0 238 0 238 100 100 100 100 0 295 1 295 219 222 220 222 0 976 c0 854
-2 975 -15 975 -13 0 -15 -120 -14 -972z"/>
<path d="M1040 4927 l0 -992 -220 -220 -220 -220 0 -258 c0 -217 -2 -259 -15
-263 -38 -15 -23 -84 18 -84 44 0 65 53 32 80 -13 10 -15 53 -15 264 l0 252
220 219 220 219 0 998 c0 659 -3 998 -10 998 -7 0 -10 -338 -10 -993z"/>
<path d="M1130 4911 l0 -1009 -225 -218 -225 -218 0 -290 0 -291 -100 -100
-100 -100 0 -110 c0 -99 -2 -112 -21 -128 -14 -13 -18 -24 -13 -40 13 -42 54
-50 78 -15 15 21 16 12 16 -113 0 -128 -1 -137 -23 -156 -12 -12 -35 -23 -51
-25 -53 -6 -60 -52 -13 -82 21 -13 57 18 57 49 0 13 11 30 25 39 l25 16 0 258
0 257 110 110 110 110 0 285 0 285 183 183 c131 130 188 181 199 177 25 -10
58 13 58 39 0 55 -76 61 -86 7 -4 -19 -63 -85 -190 -212 l-184 -184 0 -285 0
-285 -110 -110 -110 -110 0 -114 0 -114 -20 26 c-17 21 -20 40 -20 129 l0 103
100 100 100 100 0 290 0 290 230 223 230 224 0 1009 c0 890 -2 1009 -15 1009
-13 0 -15 -119 -15 -1009z"/>
<path d="M1210 5784 l0 -137 183 -185 c100 -102 194 -196 210 -210 17 -16 27
-36 27 -52 0 -51 49 -66 76 -25 12 18 11 24 -2 43 -8 12 -25 22 -38 22 -26 0
-11 -14 -248 228 l-188 191 0 131 c0 80 -4 130 -10 130 -6 0 -10 -52 -10 -136z"/>
<path d="M1752 4718 c-17 -17 -15 -53 3 -68 13 -11 15 -67 15 -394 l0 -382 65
-64 c47 -46 65 -72 65 -90 0 -49 42 -66 75 -30 26 29 7 70 -33 70 -21 0 -42
15 -85 58 l-58 59 0 383 c1 327 3 386 16 400 19 21 19 35 -1 54 -18 19 -45 21
-62 4z"/>
<path d="M1612 4548 c-16 -16 -15 -40 3 -64 12 -16 14 -81 15 -401 l0 -382 69
-70 c48 -49 68 -76 65 -89 -7 -25 29 -56 55 -47 26 8 38 50 21 70 -7 8 -23 15
-37 15 -16 0 -42 20 -84 63 l-60 64 0 374 c1 338 2 377 18 407 13 24 15 36 7
50 -14 21 -55 27 -72 10z"/>
<path d="M2340 4082 c-19 -6 -30 -22 -30 -45 0 -10 -12 -28 -26 -40 l-25 -22
-1 -246 -1 -246 -109 -111 -108 -110 0 -289 0 -288 -184 -185 c-113 -113 -192
-185 -205 -186 -63 -4 -68 -84 -6 -84 28 0 45 18 45 48 0 18 46 70 176 201 97
97 183 186 191 198 11 17 14 74 12 300 l-2 278 106 111 107 111 0 245 c0 231
1 246 20 263 11 10 26 15 35 11 20 -7 51 8 59 29 12 32 -22 68 -54 57z"/>
<path d="M2557 3958 c-9 -5 -17 -18 -17 -30 0 -11 -12 -34 -27 -52 l-28 -31 2
-231 1 -231 -104 -104 -104 -104 0 -293 0 -294 -220 -220 -220 -220 0 -984 c0
-649 3 -984 10 -984 7 0 10 333 10 978 l0 977 220 220 220 220 0 295 0 295
105 105 105 105 0 236 c0 263 0 264 69 271 40 4 61 29 45 55 -14 22 -47 33
-67 21z"/>
<path d="M1716 3764 c-9 -8 -16 -20 -16 -25 0 -24 23 -49 44 -49 14 0 48 -23
90 -61 l66 -61 0 -388 c0 -312 -3 -391 -13 -397 -24 -14 -27 -41 -8 -65 16
-20 22 -21 45 -10 30 13 36 52 11 72 -13 11 -15 68 -15 405 l0 393 -67 62
c-54 49 -67 67 -65 86 7 47 -39 71 -72 38z"/>
<path d="M2306 3714 c-20 -20 -20 -48 -1 -64 11 -9 15 -35 15 -109 l0 -96
-100 -100 -100 -100 0 -295 0 -295 -230 -229 -230 -229 0 -1008 c0 -666 3
-1009 10 -1009 7 0 10 341 10 1003 l0 1002 230 230 230 230 0 295 0 295 101
101 102 102 -2 94 c-2 83 0 96 18 113 26 23 27 47 3 68 -23 21 -36 21 -56 1z"/>
<path d="M2082 3638 c-7 -7 -12 -21 -12 -32 0 -11 -23 -43 -50 -71 l-51 -51 1
-385 0 -384 -72 -72 c-56 -56 -79 -73 -100 -73 -40 0 -59 -41 -33 -70 33 -36
75 -19 75 30 0 19 20 46 75 100 l75 74 0 386 0 386 48 47 c27 26 51 45 55 41
12 -12 56 6 62 26 14 44 -41 80 -73 48z"/>
<path d="M996 3604 c-9 -8 -16 -23 -16 -32 0 -10 -34 -51 -75 -92 l-75 -74 0
-388 0 -387 -55 -47 c-31 -27 -70 -53 -88 -59 -53 -17 -47 -85 9 -85 26 0 48
32 40 58 -4 12 11 32 54 67 l59 50 0 390 1 391 68 67 c53 53 74 67 98 67 52 0
72 41 36 73 -23 21 -36 21 -56 1z"/>
<path d="M2552 3608 c-17 -17 -15 -54 3 -72 11 -11 15 -38 15 -108 l0 -94
-105 -104 -105 -103 0 -288 0 -287 -225 -226 -225 -226 0 -960 c0 -841 2 -960
15 -960 13 0 15 119 15 959 l0 959 220 220 220 221 0 288 0 288 105 105 105
105 0 100 c0 89 2 102 20 113 25 15 26 44 2 65 -22 20 -43 22 -60 5z"/>
<path d="M882 3384 c-27 -19 -28 -38 -2 -71 20 -25 20 -40 20 -406 l-1 -380
64 -66 c36 -36 63 -71 60 -78 -14 -37 46 -70 75 -41 29 29 4 83 -37 76 -14 -2
-39 16 -81 57 l-60 59 0 387 c0 337 2 388 15 399 21 17 15 49 -10 66 -18 12
-24 11 -43 -2z"/>
<path d="M2176 3194 c-20 -19 -20 -34 0 -62 13 -18 15 -63 16 -267 l1 -246
-221 -222 -222 -222 0 -997 c0 -792 3 -998 13 -998 9 0 11 204 10 993 l-3 992
225 225 225 225 0 251 c0 211 2 254 15 264 21 18 19 57 -4 70 -27 14 -37 13
-55 -6z"/>
<path d="M2422 2558 c-7 -7 -12 -23 -12 -37 0 -19 -48 -73 -202 -229 -112
-112 -209 -210 -215 -217 -10 -11 -13 -215 -13 -954 0 -830 2 -941 15 -941 13
0 15 111 15 941 l0 941 207 209 c147 148 213 209 229 209 23 0 54 24 54 41 0
41 -51 64 -78 37z"/>
<path d="M1021 2538 c-12 -32 10 -64 42 -61 18 1 40 -15 86 -62 l61 -63 0
-380 c0 -325 -2 -381 -15 -392 -35 -29 -2 -90 40 -74 35 14 41 66 9 78 -12 5
-14 67 -14 393 l0 388 -65 64 c-40 39 -65 72 -65 85 0 47 -63 65 -79 24z"/>
<path d="M858 2419 c-21 -12 -24 -49 -6 -67 7 -7 24 -12 38 -12 18 0 44 -19
93 -68 l67 -68 0 -382 c0 -322 -2 -383 -14 -388 -23 -9 -28 -35 -11 -60 17
-26 44 -31 63 -12 17 17 15 53 -3 68 -13 11 -15 68 -15 399 l0 387 -75 74
c-41 41 -73 80 -71 86 6 15 -21 54 -37 54 -7 0 -20 -5 -29 -11z"/>
<path d="M2491 2028 c-5 -13 -7 -27 -5 -33 3 -5 -90 -104 -206 -220 l-210
-210 0 -692 c0 -455 3 -693 10 -693 7 0 10 236 10 688 l0 687 205 205 c162
162 211 205 231 205 33 0 49 24 40 58 -5 22 -12 27 -37 27 -22 0 -32 -6 -38
-22z"/>
</g>
  </defs>
  <g color="#66d5f4">
    <g clip-path="url(#clip-left)" transform="translate(0,-42) scale(1,1.14)">
      <use href="#circuit-base" />
    </g>
    <g clip-path="url(#clip-center)">
      <use href="#circuit-base" />
    </g>
    <g clip-path="url(#clip-right)" transform="translate(0,-42) scale(1,1.14)">
      <use href="#circuit-base" />
    </g>
  </g>
</svg>
