<svg id="Layer_1" data-name="Layer 1" xmlns="http://www.w3.org/2000/svg" xmlns:xlink="http://www.w3.org/1999/xlink" viewBox="0 0 114.79 114.78"><defs><style>.cls-1,.cls-3{fill:none;}.cls-2{clip-path:url(#clip-path);}.cls-3{stroke:#fff;stroke-width:2.91px;}.cls-4{fill:#fec010;}.cls-5{fill:#fff;}</style><clipPath id="clip-path" transform="translate(0 0)"><rect class="cls-1" width="114.78" height="114.78"/></clipPath></defs><title>Consult-Yellow</title><g class="cls-2"><path class="cls-3" d="M57.39,113.33A55.94,55.94,0,1,0,1.46,57.39,55.94,55.94,0,0,0,57.39,113.33Z" transform="translate(0 0)"/><path class="cls-4" d="M38,52.54a1,1,0,0,0-1-1H31.19a1,1,0,0,0,0,1.94H37a1,1,0,0,0,1-1" transform="translate(0 0)"/><path class="cls-4" d="M83.59,51.57H77.77a1,1,0,0,0,0,1.94h5.82a1,1,0,0,0,0-1.94" transform="translate(0 0)"/><path class="cls-4" d="M57.39,33.13a1,1,0,0,0,1-1V28.28a1,1,0,1,0-1.94,0v3.88a1,1,0,0,0,1,1" transform="translate(0 0)"/><path class="cls-4" d="M46.36,35.38a1,1,0,0,0,.84.49,1.05,1.05,0,0,0,.49-.13A1,1,0,0,0,48,34.41l-1.45-2.52a1,1,0,0,0-1.33-.35,1,1,0,0,0-.35,1.32Z" transform="translate(0 0)"/><path class="cls-4" d="M67.1,35.74a1,1,0,0,0,.48.13,1,1,0,0,0,.84-.49l1.46-2.52a1,1,0,0,0-.36-1.33,1,1,0,0,0-1.32.36l-1.46,2.52a1,1,0,0,0,.36,1.33" transform="translate(0 0)"/><path class="cls-4" d="M35.06,40.77l4.2,2.42a.94.94,0,0,0,.48.13,1,1,0,0,0,.85-.48,1,1,0,0,0-.36-1.33L36,39.09a1,1,0,1,0-1,1.68" transform="translate(0 0)"/><path class="cls-4" d="M79.73,64.31l-4.21-2.42a1,1,0,0,0-1,1.68L78.76,66a1,1,0,0,0,.48.13,1,1,0,0,0,.49-1.82" transform="translate(0 0)"/><path class="cls-4" d="M39.26,61.89l-4.2,2.42a1,1,0,0,0,.49,1.82A1,1,0,0,0,36,66l4.2-2.43a1,1,0,1,0-1-1.68" transform="translate(0 0)"/><path class="cls-4" d="M75,43.32a.91.91,0,0,0,.48-.13l4.21-2.42a1,1,0,0,0-1-1.68l-4.21,2.42A1,1,0,0,0,75,43.32" transform="translate(0 0)"/><path class="cls-5" d="M69,62.23a.36.36,0,0,0-.07.1c-.79,1.1-1.48,2-2.06,2.84-3.19,4.38-3.69,5-3.68,7.79a1.14,1.14,0,0,1-.24.73s-.18.2-.62.2H52.54a.89.89,0,0,1-1-1c0-2.68-.48-3.35-3.64-7.67-.58-.8-1.27-1.73-2.07-2.84a.52.52,0,0,0-.1-.18,14.56,14.56,0,1,1,23.27,0M63.21,76.8v.13L51.57,78.59V76.81a.89.89,0,0,1,1-1h9.82c.44,0,.58.14.62.19a1.15,1.15,0,0,1,.24.72v0s0,0,0,0m0,4L51.57,82.47V80.55l11.64-1.66Zm-4.28,4.72H55.72l-2.28-1.37,8-1.14ZM57.39,37A16.48,16.48,0,0,0,44.08,63.23l.09.15,2.19,3c3.18,4.34,3.27,4.53,3.27,6.52a3.13,3.13,0,0,0,.7,1.94,3.13,3.13,0,0,0-.7,1.94v6.79s0,.06,0,.09v0s0,0,0,0a1.14,1.14,0,0,0,.09.26s0,0,0,0a1,1,0,0,0,.18.23l.08.06.08.06L55,87.33a1,1,0,0,0,.5.14h3.88a1,1,0,0,0,.69-.28l4.85-4.85s0,0,0-.06l.11-.16a1.11,1.11,0,0,0,.07-.16,1.06,1.06,0,0,0,0-.19.5.5,0,0,0,0-.12V76.8a3.07,3.07,0,0,0-.62-1.94,3.11,3.11,0,0,0,.62-1.94c0-2,.1-2.19,3.32-6.61l2.13-2.93a.43.43,0,0,1,0-.07,16.31,16.31,0,0,0,3.25-9.8A16.51,16.51,0,0,0,57.39,37" transform="translate(0 0)"/></g></svg>