<?xml version="1.0" encoding="utf-8"?>
<!-- Generator: Adobe Illustrator 23.0.2, SVG Export Plug-In . SVG Version: 6.00 Build 0)  -->
<svg version="1.1" id="Layer_1" xmlns="http://www.w3.org/2000/svg" xmlns:xlink="http://www.w3.org/1999/xlink" x="0px" y="0px"
	 viewBox="0 0 114.78 114.78" style="enable-background:new 0 0 114.78 114.78;" xml:space="preserve">
<style type="text/css">
	.st0{clip-path:url(#SVGID_2_);fill:none;stroke:#FFFFFF;stroke-width:2.911;}
	.st1{clip-path:url(#SVGID_2_);fill:#FFFFFF;}
	.st2{clip-path:url(#SVGID_2_);fill:#FEC010;}
	.st3{fill:#FFFFFF;}
</style>
<g>
	<defs>
		<rect id="SVGID_1_" width="114.78" height="114.78"/>
	</defs>
	<clipPath id="SVGID_2_">
		<use xlink:href="#SVGID_1_"  style="overflow:visible;"/>
	</clipPath>
	<path class="st0" d="M57.39,113.33c30.89,0,55.94-25.04,55.94-55.94S88.29,1.46,57.39,1.46S1.46,26.5,1.46,57.39
		S26.5,113.33,57.39,113.33z"/>
	<path class="st1" d="M47.76,77.77h-2.28l-4.68-8.03V41.86h1.94v26.2c0,0.54,0.44,0.97,0.97,0.97c0.53,0,0.97-0.43,0.97-0.97v-26.2
		h3.88v26.2c0,0.54,0.44,0.97,0.97,0.97c0.54,0,0.97-0.43,0.97-0.97v-26.2h1.94v27.88L47.76,77.77z M41.77,34.11h9.7
		c0.53,0,0.97,0.44,0.97,0.97v4.85H40.8v-4.85C40.8,34.54,41.23,34.11,41.77,34.11 M51.47,32.16h-9.7c-1.6,0-2.91,1.31-2.91,2.91
		v5.82v29.11c0,0.17,0.05,0.34,0.13,0.49l6.79,11.64c0.17,0.3,0.49,0.48,0.84,0.48c0.34,0,0.66-0.18,0.84-0.48l6.79-11.64
		c0.09-0.15,0.13-0.32,0.13-0.49V40.9v-5.82C54.38,33.47,53.08,32.16,51.47,32.16"/>
	<path class="st2" d="M79.61,69.36c0-2.38-0.99-3.84-1.78-5.02c-0.63-0.94-1.13-1.69-1.13-2.74c0-0.07-0.01-0.14-0.01-0.21
		c-0.06,0.93-0.76,1.67-1.67,1.8c0.28,0.85,0.75,1.55,1.21,2.23c0.74,1.11,1.45,2.15,1.45,3.94c0,1.45-1.38,2.93-2.85,4.49
		c-0.67,0.72-1.38,1.47-2,2.28v-5.1c0.58-0.34,0.97-0.95,0.97-1.67c0-1.07-0.87-1.94-1.94-1.94c-1.07,0-1.94,0.87-1.94,1.94
		c0,0.72,0.39,1.33,0.97,1.67v5.1c-0.62-0.81-1.33-1.56-2-2.28c-1.47-1.56-2.85-3.04-2.85-4.49c0-1.78,0.7-2.83,1.45-3.94
		c0.46-0.68,0.93-1.39,1.21-2.23c-0.91-0.12-1.62-0.87-1.67-1.8C67,61.46,67,61.52,67,61.6c0,1.05-0.5,1.8-1.13,2.74
		c-0.79,1.18-1.78,2.64-1.78,5.02c0,2.22,1.72,4.05,3.38,5.82c1.22,1.3,2.46,2.64,3.05,4.1c-0.37,0.35-0.61,0.85-0.61,1.4
		c0,1.07,0.87,1.94,1.94,1.94c1.07,0,1.94-0.87,1.94-1.94c0-0.55-0.23-1.05-0.6-1.4c0.59-1.46,1.83-2.8,3.05-4.1
		C77.89,73.41,79.61,71.57,79.61,69.36"/>
	<path class="st1" d="M70.88,34.11c-0.57,0-1.12,0.5-1.18,1.06c-0.6,5.69-1.73,16.85-1.73,18.34v7.76c0,0.53,0.43,0.97,0.97,0.97
		h5.82c0.53,0,0.97-0.44,0.97-0.97v-7.76c0-1.5-1.13-12.65-1.73-18.34c-0.06-0.57-0.61-1.06-1.18-1.06H70.88z M74.76,64.18h-5.82
		c-1.6,0-2.91-1.31-2.91-2.91v-7.76c0-1.97,1.67-17.87,1.74-18.55c0.16-1.54,1.56-2.8,3.11-2.8h1.94c1.55,0,2.95,1.26,3.11,2.8
		c0.07,0.68,1.74,16.58,1.74,18.55v7.76C77.67,62.88,76.36,64.18,74.76,64.18"/>
</g>
<rect x="67.29" y="55.45" class="st3" width="9.41" height="1.94"/>
</svg>
