<?xml version="1.0" encoding="utf-8"?>
<!-- Generator: Adobe Illustrator 23.0.2, SVG Export Plug-In . SVG Version: 6.00 Build 0)  -->
<svg version="1.1" id="Layer_1" xmlns="http://www.w3.org/2000/svg" xmlns:xlink="http://www.w3.org/1999/xlink" x="0px" y="0px"
	 viewBox="0 0 114.78 114.78" style="enable-background:new 0 0 114.78 114.78;" xml:space="preserve">
<style type="text/css">
	.st0{clip-path:url(#SVGID_2_);fill:none;stroke:#FFFFFF;stroke-width:2.911;}
	.st1{clip-path:url(#SVGID_2_);fill:#FFFFFF;}
	.st2{clip-path:url(#SVGID_2_);fill:#94CCD6;}
</style>
<g>
	<defs>
		<rect id="SVGID_1_" width="114.78" height="114.78"/>
	</defs>
	<clipPath id="SVGID_2_">
		<use xlink:href="#SVGID_1_"  style="overflow:visible;"/>
	</clipPath>
	<path class="st0" d="M57.39,113.33c30.89,0,55.94-25.04,55.94-55.94S88.29,1.46,57.39,1.46S1.46,26.5,1.46,57.39
		S26.5,113.33,57.39,113.33z"/>
	<path class="st1" d="M81.57,53.98l-3.12-0.89c-0.25-0.07-0.52-0.04-0.75,0.09l-2.36,1.36c-0.23,0.13-0.39,0.35-0.46,0.6l-0.79,3.15
		h-2.36l-0.79-3.15c-0.06-0.25-0.23-0.47-0.46-0.6l-2.36-1.36c-0.23-0.13-0.5-0.17-0.75-0.09l-3.12,0.89l-1.18-2.05l2.33-2.25
		c0.19-0.18,0.29-0.43,0.29-0.7v-2.72c0-0.26-0.11-0.51-0.29-0.7l-2.33-2.25l1.18-2.05l3.12,0.89c0.26,0.07,0.53,0.04,0.75-0.09
		l2.36-1.36c0.23-0.13,0.39-0.35,0.46-0.6l0.79-3.15h2.36l0.79,3.15c0.06,0.26,0.23,0.47,0.46,0.61l2.36,1.36
		c0.23,0.13,0.5,0.16,0.75,0.09l3.12-0.89l1.18,2.05l-2.33,2.25c-0.19,0.18-0.3,0.43-0.3,0.7l0,2.72c0,0.26,0.11,0.51,0.3,0.7
		l2.33,2.25L81.57,53.98z M82.07,48.57l0-1.9l2.58-2.49c0.32-0.31,0.39-0.8,0.17-1.18l-1.94-3.36c-0.22-0.39-0.68-0.57-1.11-0.45
		l-3.45,0.99l-1.64-0.95l-0.87-3.48C75.69,35.31,75.3,35,74.86,35h-3.88c-0.45,0-0.83,0.3-0.94,0.73l-0.87,3.48l-1.64,0.95
		l-3.45-0.99c-0.43-0.12-0.88,0.06-1.11,0.45l-1.94,3.36c-0.22,0.39-0.16,0.87,0.16,1.18l2.58,2.49v1.9l-2.58,2.5
		c-0.32,0.31-0.39,0.8-0.16,1.18l1.94,3.36c0.22,0.39,0.68,0.57,1.11,0.45l3.45-0.99l1.64,0.95l0.87,3.48
		c0.11,0.43,0.5,0.73,0.94,0.73h3.88c0.44,0,0.83-0.3,0.94-0.73l0.87-3.48l1.64-0.95l3.45,0.99c0.43,0.12,0.88-0.06,1.11-0.45
		l1.94-3.36c0.22-0.39,0.15-0.87-0.17-1.18L82.07,48.57z"/>
	<path class="st2" d="M76.76,48.72l-2.88-1.66v-3.32c0-0.54-0.43-0.97-0.97-0.97c-0.54,0-0.97,0.43-0.97,0.97v3.32l-2.88,1.66
		c-0.47,0.27-0.62,0.86-0.36,1.33c0.18,0.31,0.51,0.49,0.84,0.49c0.17,0,0.33-0.04,0.48-0.13l2.88-1.66l2.88,1.66
		c0.15,0.09,0.32,0.13,0.48,0.13c0.33,0,0.66-0.17,0.84-0.49C77.39,49.58,77.23,48.99,76.76,48.72"/>
	<path class="st1" d="M64.77,64.36l-4.99,0.74c-0.29,0.04-0.55,0.22-0.7,0.47l-2.46,4.26c-0.15,0.26-0.17,0.57-0.06,0.84l1.86,4.69
		l-3.78,2.18l-3.13-3.96c-0.18-0.23-0.46-0.37-0.76-0.37h-4.92c-0.3,0-0.58,0.14-0.76,0.37l-3.13,3.96l-3.78-2.18L40,70.67
		c0.11-0.27,0.09-0.58-0.06-0.84l-2.46-4.26c-0.15-0.26-0.41-0.43-0.7-0.47l-4.99-0.74v-4.37l4.99-0.74
		c0.29-0.04,0.55-0.22,0.7-0.47l2.46-4.26c0.15-0.26,0.17-0.57,0.06-0.84l-1.86-4.69l3.78-2.19l3.13,3.96
		c0.18,0.23,0.46,0.37,0.76,0.37h4.92c0.3,0,0.58-0.13,0.76-0.37l3.13-3.96l3.78,2.19l-1.86,4.69c-0.11,0.27-0.09,0.59,0.06,0.84
		l2.46,4.26c0.15,0.26,0.4,0.43,0.7,0.47l4.99,0.74V64.36z M65.89,58.19l-5.36-0.79l-1.99-3.45l2-5.04c0.18-0.45,0-0.96-0.42-1.2
		l-5.24-3.02c-0.42-0.24-0.95-0.14-1.25,0.24l-3.36,4.25h-3.98l-3.36-4.25c-0.3-0.38-0.83-0.48-1.25-0.24l-5.24,3.02
		c-0.42,0.24-0.6,0.75-0.42,1.2l1.99,5.04l-1.99,3.45l-5.36,0.79c-0.48,0.07-0.83,0.48-0.83,0.96v6.04c0,0.48,0.35,0.89,0.83,0.96
		l5.36,0.79l1.99,3.45l-1.99,5.04c-0.18,0.45,0,0.96,0.42,1.2l5.24,3.02c0.42,0.24,0.95,0.14,1.25-0.24l3.36-4.24h3.98l3.36,4.24
		c0.19,0.24,0.47,0.37,0.76,0.37c0.17,0,0.33-0.04,0.48-0.13l5.24-3.02c0.42-0.24,0.59-0.75,0.42-1.2l-2-5.04l1.99-3.45l5.36-0.79
		c0.48-0.07,0.83-0.48,0.83-0.96v-6.04C66.71,58.67,66.36,58.26,65.89,58.19"/>
	<path class="st2" d="M50.64,66.05h-4.72l-2.33-3.88l2.33-3.88h4.72l2.33,3.88L50.64,66.05z M52.02,56.82
		c-0.18-0.29-0.49-0.47-0.83-0.47h-5.82c-0.34,0-0.66,0.18-0.83,0.47l-2.91,4.85c-0.18,0.31-0.18,0.69,0,1l2.91,4.85
		c0.18,0.29,0.49,0.47,0.83,0.47h5.82c0.34,0,0.66-0.18,0.83-0.47l2.91-4.85c0.18-0.31,0.18-0.69,0-1L52.02,56.82z"/>
</g>
</svg>
