<?xml version="1.0" encoding="utf-8"?>
<!-- Generator: Adobe Illustrator 23.0.2, SVG Export Plug-In . SVG Version: 6.00 Build 0)  -->
<svg version="1.1" id="Layer_1" xmlns="http://www.w3.org/2000/svg" xmlns:xlink="http://www.w3.org/1999/xlink" x="0px" y="0px"
	 viewBox="0 0 114.78 114.78" style="enable-background:new 0 0 114.78 114.78;" xml:space="preserve">
<style type="text/css">
	.st0{clip-path:url(#SVGID_2_);fill:none;stroke:#FFFFFF;stroke-width:2.911;}
	.st1{clip-path:url(#SVGID_2_);fill:#FFFFFF;}
	.st2{clip-path:url(#SVGID_2_);fill:#94CCD6;}
</style>
<g>
	<defs>
		<rect id="SVGID_1_" width="114.78" height="114.78"/>
	</defs>
	<clipPath id="SVGID_2_">
		<use xlink:href="#SVGID_1_"  style="overflow:visible;"/>
	</clipPath>
	<path class="st0" d="M57.39,113.33c30.89,0,55.94-25.04,55.94-55.94S88.29,1.46,57.39,1.46S1.46,26.5,1.46,57.39
		S26.5,113.33,57.39,113.33z"/>
	<path class="st1" d="M73.39,85.39h-32c-1.65,0-3-1.35-3-3v-39c0-1.65,1.35-3,3-3h5v2h-5c-0.55,0-1,0.45-1,1v39c0,0.55,0.45,1,1,1
		h32c0.55,0,1-0.45,1-1v-39c0-0.55-0.45-1-1-1h-5v-2h5c1.65,0,3,1.35,3,3v39C76.39,84.05,75.05,85.39,73.39,85.39"/>
	<path class="st1" d="M47.39,43.39h20l0-4h-4c-0.55,0-1-0.45-1-1v-2c0-2.8-2.2-5-5-5c-2.8,0-5,2.2-5,5v2c0,0.55-0.45,1-1,1h-4
		L47.39,43.39z M68.39,45.39h-22c-0.55,0-1-0.45-1-1l0-6c0-0.26,0.1-0.52,0.29-0.71c0.19-0.19,0.44-0.29,0.71-0.29h4v-1
		c0-3.92,3.07-7,7-7c3.93,0,7,3.08,7,7v1h4c0.55,0,1,0.45,1,1l0,6c0,0.27-0.11,0.52-0.29,0.71C68.91,45.29,68.66,45.39,68.39,45.39"
		/>
	<path class="st1" d="M59.39,36.39c0,1.1-0.9,2-2,2c-1.1,0-2-0.9-2-2c0-1.1,0.9-2,2-2C58.5,34.39,59.39,35.29,59.39,36.39"/>
	<path class="st2" d="M50.39,53.39c-1.65,0-3,1.35-3,3c0,1.65,1.35,3,3,3c1.65,0,3-1.35,3-3C53.39,54.74,52.05,53.39,50.39,53.39
		 M50.39,61.39c-2.76,0-5-2.24-5-5s2.24-5,5-5s5,2.24,5,5S53.15,61.39,50.39,61.39"/>
	<path class="st2" d="M50.39,66.39c-1.65,0-3,1.35-3,3c0,1.65,1.35,3,3,3c1.65,0,3-1.35,3-3C53.39,67.74,52.05,66.39,50.39,66.39
		 M50.39,74.39c-2.76,0-5-2.24-5-5c0-2.76,2.24-5,5-5s5,2.24,5,5C55.39,72.15,53.15,74.39,50.39,74.39"/>
	<path class="st1" d="M66.39,55.39h-7c-0.55,0-1-0.45-1-1c0-0.55,0.45-1,1-1h7c0.55,0,1,0.45,1,1
		C67.39,54.94,66.95,55.39,66.39,55.39"/>
	<path class="st1" d="M64.39,59.39h-5c-0.55,0-1-0.45-1-1c0-0.55,0.45-1,1-1h5c0.55,0,1,0.45,1,1
		C65.39,58.94,64.95,59.39,64.39,59.39"/>
	<path class="st1" d="M66.39,68.39h-7c-0.55,0-1-0.45-1-1s0.45-1,1-1h7c0.55,0,1,0.45,1,1S66.95,68.39,66.39,68.39"/>
	<path class="st1" d="M64.39,72.39h-5c-0.55,0-1-0.45-1-1s0.45-1,1-1h5c0.55,0,1,0.45,1,1S64.95,72.39,64.39,72.39"/>
</g>
</svg>
