<?xml version="1.0" encoding="utf-8"?>
<!-- Generator: Adobe Illustrator 23.0.3, SVG Export Plug-In . SVG Version: 6.00 Build 0)  -->
<svg version="1.1" id="Layer_1" xmlns="http://www.w3.org/2000/svg" xmlns:xlink="http://www.w3.org/1999/xlink" x="0px" y="0px"
	 viewBox="0 0 114.8 114.8" style="enable-background:new 0 0 114.8 114.8;" xml:space="preserve">
<style type="text/css">
	.st0{clip-path:url(#SVGID_2_);fill:none;stroke:#FFFFFF;stroke-width:2.911;}
	.st1{clip-path:url(#SVGID_4_);fill:#FFFFFF;}
	.st2{clip-path:url(#SVGID_6_);fill:#94CCD6;}
</style>
<g>
	<g>
		<defs>
			<rect id="SVGID_1_" width="114.8" height="114.8"/>
		</defs>
		<clipPath id="SVGID_2_">
			<use xlink:href="#SVGID_1_"  style="overflow:visible;"/>
		</clipPath>
		<path class="st0" d="M57.4,113.3c30.9,0,55.9-25,55.9-55.9S88.3,1.5,57.4,1.5S1.5,26.5,1.5,57.4S26.5,113.3,57.4,113.3z"/>
	</g>
	<g>
		<defs>
			<rect id="SVGID_3_" width="114.8" height="114.8"/>
		</defs>
		<clipPath id="SVGID_4_">
			<use xlink:href="#SVGID_3_"  style="overflow:visible;"/>
		</clipPath>
		<path class="st1" d="M57.4,36C45.6,36,36,45.6,36,57.4s9.6,21.3,21.3,21.3s21.3-9.6,21.3-21.3S69.2,36,57.4,36 M57.4,80.7
			c-12.8,0-23.3-10.4-23.3-23.3s10.5-23.3,23.3-23.3s23.3,10.5,23.3,23.3S70.2,80.7,57.4,80.7"/>
	</g>
	<g>
		<defs>
			<rect id="SVGID_5_" width="114.8" height="114.8"/>
		</defs>
		<clipPath id="SVGID_6_">
			<use xlink:href="#SVGID_5_"  style="overflow:visible;"/>
		</clipPath>
		<path class="st2" d="M54.5,66.1c-0.2,0-0.5-0.1-0.7-0.3L46,58.1l1.4-1.4l7.1,7.1L70.3,48l1.4,1.4L55.2,65.9
			C55,66,54.7,66.1,54.5,66.1"/>
	</g>
</g>
</svg>
